Coordinates
version=1
nRows=8
nColumns=63
inDegrees=yes

Units are S.I. units (second, meters, Newtons, ...)
If the header above contains a line with 'inDegrees', this indicates whether rotational values are in degrees (yes) or radians (no).

endheader
time	pelvis_tilt	pelvis_list	pelvis_rotation	pelvis_tx	pelvis_ty	pelvis_tz	hip_flexion_r	hip_adduction_r	hip_rotation_r	knee_angle_r	knee_angle_r_beta	ankle_angle_r	subtalar_angle_r	mtp_angle_r	hip_flexion_l	hip_adduction_l	hip_rotation_l	knee_angle_l	knee_angle_l_beta	ankle_angle_l	subtalar_angle_l	mtp_angle_l	L5_S1_Flex_Ext	L5_S1_Lat_Bending	L5_S1_axial_rotation	L4_L5_Flex_Ext	L4_L5_Lat_Bending	L4_L5_axial_rotation	L3_L4_Flex_Ext	L3_L4_Lat_Bending	L3_L4_axial_rotation	L2_L3_Flex_Ext	L2_L3_Lat_Bending	L2_L3_axial_rotation	L1_L2_Flex_Ext	L1_L2_Lat_Bending	L1_L2_axial_rotation	L1_T12_Flex_Ext	L1_T12_Lat_Bending	L1_T12_axial_rotation	Abs_r3	Abs_r2	Abs_r1	Abs_t1	Abs_t2	neck_flexion	neck_bending	neck_rotation	arm_flex_r	arm_add_r	arm_rot_r	elbow_flex_r	pro_sup_r	wrist_flex_r	wrist_dev_r	arm_flex_l	arm_add_l	arm_rot_l	elbow_flex_l	pro_sup_l	wrist_flex_l	wrist_dev_l
      2.32203390	     -1.44717939	      1.14649003	    104.39084372	      0.18852421	      0.81102505	      0.74489321	     -6.14577901	      1.31427785	     -6.92486815	      3.07285538	      0.05363144	     25.37776639	     -4.58963732	      0.00000000	     -1.32276740	      1.07361913	     10.15819633	      8.23516191	      0.14373069	     29.19726621	      5.71053192	      0.00000000	      0.19105447	     -0.18041585	     -0.58773982	      0.35480725	     -0.23995307	     -0.62447356	      0.31388338	     -0.43866309	     -0.62447356	      0.21835615	     -0.43866309	     -0.51427234	      0.17741318	     -0.36790399	     -0.47753860	      0.10916852	     -0.27946414	     -0.44080486	      1.36468294	     -2.04090013	     -3.26883255	      0.00000000	      0.00000000	      8.81382598	     -1.09009065	     -3.21345409	     60.18311658	    -41.82749155	     23.93619404	    133.24285744	     89.37277768	    -12.87037806	      0.68189882	     46.84394406	    -27.24664354	     19.52165860	    127.21475578	     89.60753834	    -38.00748917	    -23.28042497
      2.33898305	     -1.52197037	      1.24868587	    104.39993528	      0.18904350	      0.81104954	      0.74446277	     -6.17824510	      1.29136186	     -7.04315982	      3.30221590	      0.05763454	     25.58699466	     -4.51378764	      0.00000000	     -1.45597359	      1.05899174	      9.99883490	      8.35469730	      0.14581698	     28.81863328	      5.45718239	      0.00000000	      0.20231583	     -0.20233351	     -0.68692504	      0.37572072	     -0.26910357	     -0.72985786	      0.33238467	     -0.49195369	     -0.72985786	      0.23122676	     -0.49195369	     -0.60105941	      0.18787048	     -0.41259849	     -0.55812660	      0.11560326	     -0.31341460	     -0.51519378	      1.44512171	     -2.28883711	     -3.82047100	      0.00000000	      0.00000000	      8.24707027	     -1.18390560	     -5.36473830	     59.78406924	    -41.68110851	     22.90500481	    134.78118465	     89.36942131	    -11.85563047	      4.02777430	     46.87249574	    -27.92525257	     18.83173583	    128.01419166	     89.61025989	    -38.19718904	    -23.57098898
      2.35593220	     -1.59642919	      1.32648340	    104.24306806	      0.18960349	      0.81110835	      0.74388964	     -6.15449620	      1.22668584	     -7.13702484	      3.58089150	      0.06249835	     25.77677951	     -4.29903345	      0.00000000	     -1.66024120	      1.09656036	     10.13445726	      8.32396468	      0.14528059	     28.29946709	      4.67034462	      0.00000000	      0.21432724	     -0.22605771	     -0.68339644	      0.39802711	     -0.30065676	     -0.72610872	      0.35211821	     -0.54963672	     -0.72610872	      0.24495460	     -0.54963672	     -0.59797189	      0.19902427	     -0.46097689	     -0.55525961	      0.12246658	     -0.35016340	     -0.51254733	      1.53091801	     -2.55721005	     -3.80084598	      0.00000000	      0.00000000	      7.99671378	     -1.27245826	     -7.53683761	     58.84260007	    -41.69083697	     20.48683270	    136.62287569	     89.34968656	     -8.14576400	      7.41743198	     47.27094590	    -28.02323152	     18.58666996	    128.35287053	     89.60839800	    -37.15236898	    -23.55561017
      2.37288136	     -1.54962571	      1.41650547	    104.09669001	      0.18980667	      0.81103933	      0.74364149	     -6.11363123	      1.26722718	     -7.15114080	      3.83041702	      0.06685339	     25.90254415	     -4.21972317	      0.00000000	     -1.82221108	      1.01829649	     10.10952928	      8.28719779	      0.14463889	     27.91174072	      4.18363600	      0.00000000	      0.22211007	     -0.22616447	     -0.62911381	      0.41248061	     -0.30079874	     -0.66843343	      0.36490463	     -0.54989628	     -0.66843343	      0.25384960	     -0.54989628	     -0.55047459	      0.20625141	     -0.46119458	     -0.51115497	      0.12691369	     -0.35032876	     -0.47183536	      1.58651000	     -2.55841768	     -3.49894230	      0.00000000	      0.00000000	      8.05401531	     -1.69988706	     -9.12207226	     58.36579030	    -42.15110029	     19.03377458	    138.48458206	     89.33287735	     -7.40441083	     10.13590545	     47.87887543	    -27.67861645	     18.66915838	    128.26429749	     89.59762199	    -35.47320210	    -23.24368699
      2.38983051	     -1.54872130	      1.50275348	    103.96819337	      0.19004587	      0.81095269	      0.74327954	     -6.12070299	      1.26794910	     -7.12897989	      4.00634859	      0.06992397	     26.10085052	     -4.07868955	      0.00000000	     -2.04228857	      0.99547465	     10.32889105	      8.14012483	      0.14207198	     27.55821079	      3.55373395	      0.00000000	      0.23069005	     -0.23492075	     -0.50651331	      0.42841449	     -0.31244460	     -0.53817039	      0.37900068	     -0.57118632	     -0.53817039	      0.26365565	     -0.57118632	     -0.44319914	      0.21421878	     -0.47905040	     -0.41154206	      0.13181629	     -0.36389225	     -0.37988498	      1.64779593	     -2.65747054	     -2.81707505	      0.00000000	      0.00000000	      8.41179568	     -2.00781600	    -10.19627799	     57.56643157	    -42.58809481	     16.73486819	    140.19338180	     89.30785676	     -4.98891124	     12.88754984	     48.78432639	    -27.05759460	     19.25668652	    127.82423216	     89.58413484	    -33.13900209	    -22.27328267
      2.40677966	     -1.58317734	      1.56821028	    104.00957331	      0.19001046	      0.81078619	      0.74302670	     -6.13514471	      1.25069888	     -7.29481526	      4.15871320	      0.07258324	     26.24787827	     -4.09697931	      0.00000000	     -2.23636571	      1.02151883	     10.84554903	      7.98296800	      0.13932908	     27.23033260	      2.83879275	      0.00000000	      0.24317935	     -0.24261754	     -0.40672249	      0.45160837	     -0.32268132	     -0.43214264	      0.39951935	     -0.58990028	     -0.43214264	      0.27792968	     -0.58990028	     -0.35588218	      0.22581634	     -0.49474568	     -0.33046202	      0.13895268	     -0.37581456	     -0.30504187	      1.73700576	     -2.74453808	     -2.26206846	      0.00000000	      0.00000000	      9.08028303	     -2.47488725	    -10.25893131	     57.07314549	    -42.73445846	     14.97499148	    141.28624106	     89.27979938	     -2.83775898	     14.92963678	     49.52916133	    -26.54386322	     19.75483026	    127.55141193	     89.57804555	    -30.29066279	    -19.65402934
      2.42372881	     -1.65538395	      1.64412111	    103.94790517	      0.19013689	      0.81043735	      0.74278935	     -6.18188567	      1.18246687	     -7.19141706	      4.28554196	      0.07479682	     26.48442863	     -4.04184504	      0.00000000	     -2.43498194	      1.10959668	     11.34725384	      7.85952330	      0.13717456	     26.99260498	      1.91734183	      0.00000000	      0.24986790	     -0.24945687	     -0.29171780	      0.46402968	     -0.33177764	     -0.30995016	      0.41050797	     -0.60652943	     -0.30995016	      0.28557402	     -0.60652943	     -0.25525307	      0.23202733	     -0.50869245	     -0.23702071	      0.14277452	     -0.38640869	     -0.21878835	      1.78478142	     -2.82190599	     -1.62244686	      0.00000000	      0.00000000	     10.50242996	     -3.04688422	     -8.96461453	     57.02194301	    -42.88817794	     14.26980804	    141.79243121	     89.25643233	     -2.32267954	     15.99669430	     50.04499765	    -26.28072943	     19.67038392	    127.87705167	     89.58209501	    -25.46377693	    -13.56894914
      2.44067797	     -1.70864032	      1.78068534	    104.06756950	      0.18991861	      0.81017594	      0.74291843	     -6.29358769	      1.16675706	     -7.30051860	      4.39263256	      0.07666590	     26.61803666	     -4.13871085	      0.00000000	     -2.56476302	      1.13296750	     11.43162344	      7.95965754	      0.13892223	     26.92760881	      1.80148404	      0.00000000	      0.25330327	     -0.24872311	     -0.17318330	      0.47040951	     -0.33080174	     -0.18400726	      0.41615195	     -0.60474537	     -0.18400726	      0.28950031	     -0.60474537	     -0.15153539	      0.23521742	     -0.50719617	     -0.14071143	      0.14473749	     -0.38527210	     -0.12988747	      1.80931995	     -2.81360559	     -0.96319356	      0.00000000	      0.00000000	     12.38724959	     -3.93806011	     -6.76090980	     56.98632980	    -43.12818078	     13.98604271	    141.63161085	     89.24039082	     -2.47216175	     15.82759745	     51.06145904	    -25.83807413	     20.92511774	    127.02137641	     89.57162752	    -24.72237684	    -11.61151674
